Coordinates
version=1
nRows=10
nColumns=60
inDegrees=yes

Units are S.I. units (second, meters, Newtons, ...)
If the header above contains a line with 'inDegrees', this indicates whether rotational values are in degrees (yes) or radians (no).

endheader
time	pelvis_tilt	pelvis_list	pelvis_rotation	pelvis_tx	pelvis_ty	pelvis_tz	hip_flexion_r	hip_adduction_r	hip_rotation_r	knee_angle_r_beta	knee_angle_r	ankle_angle_r	subtalar_angle_r	mtp_angle_r	hip_flexion_l	hip_adduction_l	hip_rotation_l	knee_angle_l_beta	knee_angle_l	ankle_angle_l	subtalar_angle_l	mtp_angle_l	L5_S1_Flex_Ext	L5_S1_Lat_Bending	L5_S1_axial_rotation	L4_L5_Flex_Ext	L4_L5_Lat_Bending	L4_L5_axial_rotation	L3_L4_Flex_Ext	L3_L4_Lat_Bending	L3_L4_axial_rotation	L2_L3_Flex_Ext	L2_L3_Lat_Bending	L2_L3_axial_rotation	L1_L2_Flex_Ext	L1_L2_Lat_Bending	L1_L2_axial_rotation	L1_T12_Flex_Ext	L1_T12_Lat_Bending	L1_T12_axial_rotation	Abs_r3	Abs_r2	Abs_r1	Abs_t1	Abs_t2	arm_flex_r	arm_add_r	arm_rot_r	elbow_flex_r	pro_sup_r	wrist_flex_r	wrist_dev_r	arm_flex_l	arm_add_l	arm_rot_l	elbow_flex_l	pro_sup_l	wrist_flex_l	wrist_dev_l
    123.19000000	      0.29091498	     13.53219071	     91.43351861	      0.39646009	      0.94618800	      0.24033636	     -8.77659119	     -5.00012725	     -2.64555716	      0.21431262	    -12.27920884	     10.49503707	      0.00000000	      0.00000000	     -7.63713474	     -5.78790075	     -4.75906722	      0.22545700	    -12.91773439	     12.85472883	      0.00000000	      0.00000000	     -5.59138174	      0.07390803	     -0.34693512	    -10.38375503	      0.09829767	     -0.36861857	     -9.18608106	      0.17969997	     -0.36861857	     -6.39039019	      0.17969997	     -0.30356823	     -5.19215708	      0.15071325	     -0.28188479	     -3.19491553	      0.11448353	     -0.26020134	    -39.93868063	      0.83606236	     -1.92954908	      0.00000000	      0.00000000	     13.29643579	    -29.27501097	      8.13951331	     93.50720709	     64.72625745	     -5.86511980	     30.20982116	     17.12852073	    -28.15361888	      9.69097461	     89.10327428	     62.42014851	      4.20756298	     27.98095728
    123.20000000	      0.28209050	     13.51134994	     91.42923350	      0.39607694	      0.94617941	      0.23919798	     -8.86568546	     -5.02828992	     -2.68250356	      0.21305448	    -12.20712235	     10.51514324	      0.00000000	      0.00000000	     -7.73884615	     -5.74524265	     -4.79333508	      0.22427471	    -12.84999454	     12.89231020	      0.00000000	      0.00000000	     -5.53076066	      0.07578633	     -0.34631535	    -10.27117563	      0.10079583	     -0.36796006	     -9.08648669	      0.18426689	     -0.36796006	     -6.32110636	      0.18426689	     -0.30302593	     -5.13586435	      0.15454349	     -0.28138122	     -3.16027664	      0.11739303	     -0.25973651	    -39.50567034	      0.85731018	     -1.92610209	      0.00000000	      0.00000000	     13.72532714	    -29.38036279	      8.04068090	     93.61343932	     64.73038646	     -5.86596551	     30.21222255	     17.54157839	    -28.21286403	      9.71993121	     89.33570590	     62.43306936	      4.19579230	     27.98591698
    123.21000000	      0.24105556	     13.43847991	     91.38913229	      0.39573634	      0.94608989	      0.23802742	     -8.99462442	     -5.10235862	     -2.63847984	      0.20849890	    -11.94610687	     10.55783984	      0.00000000	      0.00000000	     -7.87303293	     -5.64695900	     -4.77036563	      0.21985353	    -12.59667924	     13.02083094	      0.00000000	      0.00000000	     -5.45527874	      0.07210083	     -0.33890720	    -10.13099814	      0.09589411	     -0.36008890	     -8.96247743	      0.17530597	     -0.36008890	     -6.23483807	      0.17530597	     -0.29654380	     -5.06577183	      0.14702802	     -0.27536210	     -3.11714627	      0.11168419	     -0.25418040	    -38.96651048	      0.81561906	     -1.88490015	      0.00000000	      0.00000000	     14.28636319	    -29.61092301	      8.26482488	     93.51881961	     64.67859227	     -5.86053918	     30.34905283	     18.19809277	    -28.55609892	     10.33866768	     89.42577868	     62.46333809	      4.11835777	     28.12308265
    123.22000000	      0.22693605	     13.41350783	     91.36052216	      0.39543742	      0.94608406	      0.23710679	     -9.03993030	     -5.13921613	     -2.65584079	      0.20796404	    -11.91546205	     10.56035183	      0.00000000	      0.00000000	     -7.93159552	     -5.60103022	     -4.79699341	      0.21935032	    -12.56784765	     13.02486853	      0.00000000	      0.00000000	     -5.40719742	      0.07319139	     -0.33560287	    -10.04170632	      0.09734455	     -0.35657805	     -8.88348464	      0.17795754	     -0.35657805	     -6.17988593	      0.17795754	     -0.29365251	     -5.02112352	      0.14925188	     -0.27267733	     -3.08967260	      0.11337346	     -0.25170215	    -38.62307042	      0.82795562	     -1.86652249	      0.00000000	      0.00000000	     14.87360379	    -29.69097409	      8.14614793	     93.64988532	     64.66652251	     -5.85592806	     30.35541744	     18.76490247	    -28.59456892	     10.29739398	     89.56132902	     62.47139906	      4.10811123	     28.12807262
    123.23000000	      0.20380586	     13.37689988	     91.31837782	      0.39519061	      0.94606670	      0.23630825	     -9.05847422	     -5.18648865	     -2.65805066	      0.20726270	    -11.87527786	     10.56683608	      0.00000000	      0.00000000	     -7.98874581	     -5.54174333	     -4.82642595	      0.21850869	    -12.51962563	     13.03962895	      0.00000000	      0.00000000	     -5.36189714	      0.07351501	     -0.32708932	     -9.95757917	      0.09777496	     -0.34753240	     -8.80906081	      0.17874440	     -0.34753240	     -6.12811224	      0.17874440	     -0.28620315	     -4.97905768	      0.14991181	     -0.26576007	     -3.06378802	      0.11387475	     -0.24531699	    -38.29949507	      0.83161651	     -1.81917265	      0.00000000	      0.00000000	     15.54990285	    -29.79614570	      8.13308800	     93.72727968	     64.63986901	     -5.84370723	     30.38416167	     19.45627669	    -28.66510354	     10.35543514	     89.63029820	     62.48161707	      4.09975938	     28.14919477
    123.24000000	      0.13123877	     13.47821897	     91.21733062	      0.39501170	      0.94625174	      0.23563904	     -9.18824939	     -5.29599784	     -2.47744077	      0.20784015	    -11.90836347	     10.57561207	      0.00000000	      0.00000000	     -8.22615060	     -5.41334403	     -4.87114683	      0.21647098	    -12.40287351	     13.04011941	      0.00000000	      0.00000000	     -5.31179842	      0.06485235	     -0.30043879	     -9.86454085	      0.08625363	     -0.31921621	     -8.72675362	      0.15768202	     -0.31921621	     -6.07085441	      0.15768202	     -0.26288394	     -4.93253601	      0.13224692	     -0.24410651	     -3.03516162	      0.10045630	     -0.22532909	    -37.94164494	      0.73362281	     -1.67095039	      0.00000000	      0.00000000	     16.63830777	    -30.23433783	      8.93761599	     93.20778543	     64.41260106	     -5.79335321	     30.71254656	     20.78832869	    -28.98665732	     11.45114478	     88.90674716	     62.49256048	      4.02350017	     28.41142164
    123.25000000	      0.12503216	     13.40086404	     91.18623183	      0.39477300	      0.94617371	      0.23508317	     -9.14043048	     -5.32892694	     -2.53590238	      0.20710153	    -11.86604339	     10.59258891	      0.00000000	      0.00000000	     -8.20462011	     -5.38005316	     -4.92609550	      0.21558758	    -12.35225858	     13.03428663	      0.00000000	      0.00000000	     -5.27772988	      0.06761263	     -0.29235305	     -9.80127216	      0.08992480	     -0.31062512	     -8.67078242	      0.16439336	     -0.31062512	     -6.03191748	      0.16439336	     -0.25580892	     -4.90089997	      0.13787568	     -0.23753686	     -3.01569485	      0.10473197	     -0.21926479	    -37.69829676	      0.76484763	     -1.62597998	      0.00000000	      0.00000000	     17.37107314	    -30.26069837	      8.82364414	     93.33611302	     64.37430819	     -5.78639590	     30.73408552	     21.55004985	    -28.98790001	     11.37647429	     89.02278792	     62.49316341	      4.00970384	     28.42056759
    123.26000000	      0.09457413	     13.52031188	     91.12385767	      0.39456617	      0.94641017	      0.23479971	     -9.18687817	     -5.39341967	     -2.48902040	      0.21042917	    -12.05670343	     10.59008953	      0.00000000	      0.00000000	     -8.36516549	     -5.31766245	     -4.96016968	      0.21590103	    -12.37021761	     12.93877904	      0.00000000	      0.00000000	     -5.25101137	      0.06654333	     -0.26877934	     -9.75165321	      0.08850263	     -0.28557805	     -8.62688658	      0.16179345	     -0.28557805	     -6.00138089	      0.16179345	     -0.23518192	     -4.87608916	      0.13569516	     -0.21838322	     -3.00042790	      0.10307562	     -0.20158451	    -37.50744909	      0.75275144	     -1.49487007	      0.00000000	      0.00000000	     18.57359943	    -30.55336729	      9.44864375	     92.80718668	     64.06517285	     -5.75918203	     31.07630669	     22.99406787	    -29.05988572	     12.16659063	     88.21290347	     62.42393558	      3.88930584	     28.67451513
    123.27000000	      0.09022315	     13.39104215	     91.12460387	      0.39432155	      0.94624143	      0.23450651	     -9.08474147	     -5.41842531	     -2.55592167	      0.20930744	    -11.99243296	     10.61197816	      0.00000000	      0.00000000	     -8.27324675	     -5.29804444	     -5.02819268	      0.21452306	    -12.29126588	     12.95056484	      0.00000000	      0.00000000	     -5.22525045	      0.06786168	     -0.26642040	     -9.70381261	      0.09025603	     -0.28307167	     -8.58456396	      0.16499888	     -0.28307167	     -5.97193874	      0.16499888	     -0.23311785	     -4.85216757	      0.13838353	     -0.21646657	     -2.98570811	      0.10511774	     -0.19981530	    -37.32344143	      0.76766486	     -1.48175031	      0.00000000	      0.00000000	     19.37055881	    -30.58021069	      9.31408607	     92.93016367	     64.02692237	     -5.75374966	     31.08798792	     23.82696588	    -29.03129629	     12.06799899	     88.33487538	     62.41442326	      3.87832898	     28.67419778
    123.28000000	      0.04610011	     13.44930970	     91.12996495	      0.39408711	      0.94635357	      0.23446986	     -9.08969063	     -5.48448057	     -2.60162384	      0.21155047	    -12.12094924	     10.64686669	      0.00000000	      0.00000000	     -8.36104051	     -5.22819697	     -5.03894625	      0.21383730	    -12.25197501	     12.88051778	      0.00000000	      0.00000000	     -5.18876466	      0.06881411	     -0.21115520	     -9.63605485	      0.09152277	     -0.22435240	     -8.52462146	      0.16731463	     -0.22435240	     -5.93023913	      0.16731463	     -0.18476080	     -4.81828686	      0.14032573	     -0.17156360	     -2.96486013	      0.10659306	     -0.15836640	    -37.06282708	      0.77843897	     -1.17438187	      0.00000000	      0.00000000	     20.51457751	    -30.90072698	      9.71584032	     92.36440185	     61.48711890	     -6.03725636	     33.36686677	     25.88207513	    -28.99086639	     13.61681336	     87.05102181	     61.11372086	      2.52745964	     30.29846020
